<?xml version="1.0" encoding="UTF-8" standalone="no"?>
<svg
   height="16px"
   viewBox="0 0 16 16"
   width="16px"
   version="1.1"
   id="svg239"
   sodipodi:docname="background-app-ghost-symbolic.svg"
   inkscape:version="1.2.2 (b0a8486541, 2022-12-01)"
   xmlns:inkscape="http://www.inkscape.org/namespaces/inkscape"
   xmlns:sodipodi="http://sodipodi.sourceforge.net/DTD/sodipodi-0.dtd"
   xmlns="http://www.w3.org/2000/svg"
   xmlns:svg="http://www.w3.org/2000/svg">
  <defs
     id="defs243" />
  <sodipodi:namedview
     id="namedview241"
     pagecolor="#505050"
     bordercolor="#eeeeee"
     borderopacity="1"
     inkscape:showpageshadow="0"
     inkscape:pageopacity="0"
     inkscape:pagecheckerboard="0"
     inkscape:deskcolor="#505050"
     showgrid="false"
     inkscape:zoom="50.5625"
     inkscape:cx="8.0197775"
     inkscape:cy="7.9901112"
     inkscape:window-width="2560"
     inkscape:window-height="1371"
     inkscape:window-x="0"
     inkscape:window-y="0"
     inkscape:window-maximized="1"
     inkscape:current-layer="svg239" />
  <path
     d="m 7.992188 1 c -3.867188 0.003906 -6.996094 3.140625 -6.992188 7.007812 v 5.988282 c 0 0.554687 0.449219 1.003906 1.003906 1.003906 c 0.550782 -0.003906 1 -0.453125 0.996094 -1.003906 v -0.992188 c 0 -0.554687 0.449219 -1.003906 1.003906 -1.003906 c 0.550782 0.003906 1 0.453125 0.996094 1.003906 v 0.992188 c 0 0.554687 0.449219 1.003906 1.003906 1.003906 c 0.550782 -0.003906 1 -0.453125 0.996094 -1.003906 v -0.992188 c 0 -0.554687 0.449219 -1.003906 1.003906 -1.003906 c 0.550782 0.003906 1 0.453125 0.996094 1.003906 v 0.992188 c 0 0.554687 0.449219 1.003906 1.003906 1.003906 c 0.550782 -0.003906 1 -0.453125 0.996094 -1.003906 v -0.992188 c 0 -0.554687 0.449219 -1.003906 1.003906 -1.003906 c 0.550782 0.003906 1 0.453125 0.996094 1.003906 v 0.992188 c 0 0.554687 0.449219 1.003906 1.003906 1.003906 c 0.550782 -0.003906 1 -0.453125 0.996094 -1.003906 v -5.988282 c 0 -3.871093 -3.136719 -7.007812 -7.007812 -7.007812 z m -1.992188 4 c 0.554688 0 1 0.445312 1 1 v 1 c 0 0.554688 -0.445312 1 -1 1 s -1 -0.445312 -1 -1 v -1 c 0 -0.554688 0.445312 -1 1 -1 z m 4 0 c 0.554688 0 1 0.445312 1 1 v 1 c 0 0.554688 -0.445312 1 -1 1 s -1 -0.445312 -1 -1 v -1 c 0 -0.554688 0.445312 -1 1 -1 z m 0 0"
     id="path237"
     style="fill:#222222;fill-opacity:1" />
</svg>
